<svg width="200" height="58" viewBox="0 0 200 58" fill="none" xmlns="http://www.w3.org/2000/svg">
<path d="M198.911 13.6067L174.139 0.272393C173.458 -0.0907976 172.629 -0.0907976 171.949 0.272393L148.698 12.7823L125.447 0.272393C124.767 -0.0907976 123.938 -0.0907976 123.257 0.272393L100.006 12.7823L76.7489 0.272393C76.0685 -0.0907976 75.2397 -0.0907976 74.5593 0.272393L51.3082 12.7823L28.0572 0.272393C27.3768 -0.0907976 26.5479 -0.0907976 25.8675 0.272393L1.09482 13.6067C0.414424 13.9699 0 14.6444 0 15.3765V42.0393C0 42.7657 0.414424 43.4402 1.09482 43.8091L25.8675 57.1376C26.5479 57.5008 27.3768 57.5008 28.0572 57.1376L51.3082 44.6277L74.5593 57.1376C75.2397 57.5008 76.0685 57.5008 76.7489 57.1376L100 44.6277L123.251 57.1376C123.931 57.5008 124.76 57.5008 125.441 57.1376L148.692 44.6277L171.943 57.1376C172.623 57.5008 173.452 57.5008 174.132 57.1376L198.905 43.8091C199.586 43.4459 200 42.7714 200 42.0393V15.3707C200 14.6444 199.586 13.9699 198.905 13.6009L198.911 13.6067ZM48.6918 39.2202C48.6918 39.9466 48.2774 40.6211 47.597 40.9843L28.0572 51.4995C27.3829 51.8627 26.5479 51.8627 25.8675 51.4995L6.3277 40.9843C5.65349 40.6211 5.23288 39.9466 5.23288 39.2202V18.1898C5.23288 17.4634 5.64731 16.7889 6.3277 16.4257L25.8675 5.91049C26.5417 5.5473 27.3768 5.5473 28.0572 5.91049L47.597 16.4257C48.2712 16.7889 48.6918 17.4634 48.6918 18.1898V39.2202ZM97.3897 39.2202C97.3897 39.9466 96.9753 40.6211 96.2949 40.9843L76.7551 51.4995C76.0809 51.8627 75.2459 51.8627 74.5655 51.4995L55.0257 40.9843C54.3515 40.6211 53.9309 39.9466 53.9309 39.2202V18.1898C53.9309 17.4634 54.3453 16.7889 55.0257 16.4257L74.5655 5.91049C75.2397 5.5473 76.0747 5.5473 76.7551 5.91049L96.2949 16.4257C96.9691 16.7889 97.3897 17.4634 97.3897 18.1898V39.2202ZM146.082 39.2202C146.082 39.9466 145.667 40.6211 144.987 40.9843L125.447 51.4995C124.773 51.8627 123.938 51.8627 123.257 51.4995L103.717 40.9843C103.043 40.6211 102.623 39.9466 102.623 39.2202V18.1898C102.623 17.4634 103.037 16.7889 103.717 16.4257L123.257 5.91049C123.931 5.5473 124.767 5.5473 125.447 5.91049L144.987 16.4257C145.661 16.7889 146.082 17.4634 146.082 18.1898V39.2202ZM194.773 39.2202C194.773 39.9466 194.359 40.6211 193.678 40.9843L174.139 51.4995C173.464 51.8627 172.629 51.8627 171.949 51.4995L152.409 40.9843C151.735 40.6211 151.314 39.9466 151.314 39.2202V18.1898C151.314 17.4634 151.729 16.7889 152.409 16.4257L171.949 5.91049C172.623 5.5473 173.458 5.5473 174.139 5.91049L193.678 16.4257C194.353 16.7889 194.773 17.4634 194.773 18.1898V39.2202Z" fill="#3E6991"/>
<path d="M82.1858 17.325H66.6789V22.2021H82.0188V26.2664H69.1284C66.6728 26.2664 64.0625 27.9209 64.0625 30.9878V35.3576C64.0625 37.6463 65.8377 40.0791 69.1284 40.0791H87.2517V22.0464C87.2517 19.7578 85.4765 17.325 82.1858 17.325ZM81.957 35.202H69.2954V31.1435H81.957V35.202Z" fill="#3E6991"/>
<path d="M179.575 17.325H164.069V22.2021H179.408V26.2664H166.518C164.062 26.2664 161.452 27.9209 161.452 30.9878V35.3576C161.452 37.6463 163.227 40.0791 166.518 40.0791H184.641V22.0464C184.641 19.7578 182.866 17.325 179.575 17.325ZM179.347 35.202H166.685V31.1435H179.347V35.202Z" fill="#3E6991"/>
<path d="M130.877 17.325H117.82C114.529 17.325 112.754 19.7578 112.754 22.0464V26.4278C112.754 29.4947 115.364 31.1492 117.82 31.1492H130.71V35.2077H112.754V35.3634C112.754 37.6521 114.529 40.0849 117.82 40.0849H130.877C133.333 40.0849 135.943 38.4303 135.943 35.3634V30.9936C135.943 28.7049 134.168 26.2721 130.877 26.2721H117.987V22.2078H135.943V22.0522C135.943 19.7635 134.168 17.3307 130.877 17.3307V17.325Z" fill="#3E6991"/>
<path d="M33.3212 26.2606H20.604V17.325H15.3711V40.0791H20.604V31.1377H33.3212V40.0791H38.5541V17.325H33.3212V26.2606Z" fill="#3E6991"/>
</svg>
