<?xml version="1.0" encoding="UTF-8"?><svg id="Layer_1" xmlns="http://www.w3.org/2000/svg" width="434.7426" height="81.3642" viewBox="0 0 434.7426 81.3642"><defs><style>.cls-1{fill:#003057;}.cls-2{fill:#ff6c0c;}</style></defs><path class="cls-2" d="m53.6154,81.3642c-1.7517-1.8844-12.2685-13.1736-12.6237-13.5546h-12.9667c1.7465,1.8775,12.2271,13.1684,12.5805,13.5546h13.0099Z"/><path class="cls-2" d="m18.5253,31.3815C22.7355,3.0379,51.2878,0,51.2878,0h6.467s-25.2973,3.0447-29.011,29.5954c-2.4326,17.389,10.6634,34.4934,10.6634,34.4934h-12.9909s-11.0324-11.5685-7.8911-32.7073"/><path class="cls-2" d="m93.5913.0007c1.7568,1.8844,12.2667,13.1719,12.6236,13.5547h12.9685C117.4369,11.6727,106.9529.3835,106.6012.0007h-13.0099Z"/><path class="cls-2" d="m128.6856,49.9803c-4.2171,28.3472-32.7677,31.3832-32.7677,31.3832h-6.4635s25.2973-3.0464,29.0092-29.5971c2.4275-17.389-10.6599-34.4866-10.6599-34.4866h12.9909s11.0324,11.5685,7.8911,32.7004"/><path class="cls-2" d="m35.6528,81.3642c-1.75-1.8844-12.2668-13.1736-12.6202-13.5546h-12.9685c1.7465,1.8775,12.2271,13.1684,12.5874,13.5546h13.0013Z"/><path class="cls-2" d="m.5616,31.3815C4.7752,3.0379,33.3293,0,33.3293,0h6.4635S14.4955,3.0447,10.7853,29.5954c-2.4344,17.389,10.6616,34.4934,10.6616,34.4934h-12.9891S-2.5762,52.5204.5616,31.3815"/><path class="cls-2" d="m75.6317.0007c1.7516,1.8844,12.2667,13.1719,12.6202,13.5547h12.9702C99.4739,11.6727,88.9915.3835,88.6364.0007h-13.0047Z"/><path class="cls-2" d="m110.726,49.9803c-4.2171,28.3472-32.7677,31.3832-32.7677,31.3832h-6.4635s25.2938-3.0464,29.0057-29.5971c2.4309-17.389-10.6599-34.4866-10.6599-34.4866h12.9891s11.0358,11.5685,7.8963,32.7004"/><path class="cls-1" d="m157.5585,52.8365h13.7098c2.3913,0,3.6964-.2258,4.4636-.7241.9482-.5828,1.4948-1.5741,1.4948-2.7464,0-1.4017-.7276-2.6171-1.9447-3.2016-.6327-.3638-1.8051-.5327-3.2447-.5327h-5.548c-3.605,0-5.9532-.6396-7.5308-1.9948-1.8034-1.5792-2.8413-4.0153-2.8413-6.5859,0-3.8757,2.0724-7.2187,5.2326-8.2997,1.3482-.4914,2.9292-.6258,6.4463-.6258h14.8821v5.3653h-13.4357c-2.8447.0431-3.0688.0431-4.0171.2724-1.262.3172-2.0292,1.4844-2.0292,3.0688,0,1.3482.6327,2.4361,1.7137,2.9223.9051.4086,1.6224.4983,3.7861.4983h4.8274c4.4188,0,6.8101.681,8.5721,2.4861,1.3517,1.3534,2.2516,4.0102,2.2516,6.5791,0,3.2516-1.4861,6.2291-3.8343,7.6687-1.4827.9482-3.3792,1.2172-7.8463,1.2172h-15.108v-5.3672Z"/><path class="cls-1" d="m196.1157,45.8494h8.5738l-4.2895-10.5117-4.2843,10.5117Zm.5896-17.7235h7.3497l12.4444,30.0781h-7.4877l-2.8843-6.9911h-11.4513l-2.8861,6.9911h-7.5324l12.4478-30.0781h-.0001Z"/><polygon class="cls-1" points="224.7196 58.2039 218.6198 58.2039 218.6198 28.1258 226.785 28.1258 238.7914 50.5387 238.7914 28.1258 244.8705 28.1258 244.8705 58.2039 237.0243 58.2039 224.7196 36.1531 224.7196 58.2039"/><rect class="cls-1" x="252.1332" y="28.1261" width="6.4083" height="30.0781"/><polygon class="cls-1" points="294.9842 51.6214 302.8752 28.1258 312.2163 28.1258 312.2163 58.2039 306.1235 58.2039 306.1235 35.6048 298.2289 58.2039 291.655 58.2039 284.2002 35.6048 284.2002 58.2039 278.1193 58.2039 278.1193 28.1258 287.5 28.1258 294.9842 51.6214"/><path class="cls-1" d="m326.197,45.8494h8.5651l-4.2773-10.5117-4.2878,10.5117h0Zm.5879-17.7235h7.3531l12.4427,30.0781h-7.4842l-2.8879-6.9911h-11.4598l-2.8843,6.9911h-7.529l12.4495-30.0781h0Z"/><path class="cls-1" d="m364.0838,41.4322c3.2947,0,4.6016-1.2206,4.6016-4.1515,0-1.8103-.8154-3.0671-2.2137-3.5654-.4965-.1345-1.305-.2241-2.3879-.2241h-8.9789v7.941h8.9789Zm-8.9789,16.7717h-6.3963v-30.0781h14.7011c4.5567,0,7.2119.4914,9.017,1.7551,2.1206,1.4465,3.3429,3.8826,3.3429,6.6291,0,4.5998-1.8534,7.4428-5.7359,8.7979,3.5222.9482,5.236,3.6515,5.467,8.3359.219,2.8068.3052,3.4326.7121,4.5601h-7.1636c-.2328-.6793-.2672-.9431-.3638-1.6258-.0983-.8086-.2241-2.0723-.2741-2.6602-.5828-5.4566-2.4775-7.1221-8.1618-7.1221h-5.1445v11.4081h0Z"/><path class="cls-1" d="m403.555,58.2039h-10.4634c-5.1825,0-7.6687-.7189-10.0152-2.9809-2.5671-2.4724-3.9653-6.6222-3.9653-11.9927,0-6.7687,2.3862-11.7702,6.6325-13.7563,1.7154-.8086,4.6861-1.3482,7.6205-1.3482h10.191v5.3653h-9.4307c-2.9723,0-5.0929.8086-6.3997,2.4361-.9948,1.2155-1.5362,3.6085-1.5362,6.7204,0,4.417.9552,7.5273,2.7586,8.8324,1.1672.9051,2.9723,1.3569,5.4083,1.3569h9.1997v5.367h-.0002Z"/><polygon class="cls-1" points="430.3604 57.8495 429.6345 57.8495 429.6345 55.1599 428.6604 55.1599 428.6604 54.4772 431.381 54.4772 431.381 55.1599 430.3604 55.1599 430.3604 57.8495"/><polygon class="cls-1" points="433.1738 57.8931 432.8427 57.8931 432.822 57.8328 432.291 56.376 431.9945 57.8518 431.2634 57.8518 431.2842 57.7414 431.941 54.476 432.3823 54.476 433.0048 56.4156 433.6151 54.476 434.0564 54.476 434.0685 54.5485 434.7426 57.8518 434.0099 57.8518 433.7254 56.3794 433.1738 57.8931"/><path class="cls-1" d="m423.51,52.8094c-.0862-.3396.0689-.793.3448-1.0068l4.8757-3.7791c.2759-.2138.2483-.5225-.0603-.6828l-.3138-.1637c-.3103-.1621-.5017-.5741-.4241-.9155l.6052-2.6895c.0776-.3414-.1431-.5828-.4896-.5361l-2.0379.2706c-.3465.0448-.7655-.1707-.9293-.4793l-.2965-.5603c-.1638-.3085-.4983-.3568-.7413-.1051l-2.4154,2.493c-.2431.2517-.3966.1742-.3396-.1707l.9586-5.8342c.0569-.3448-.1621-.5207-.4879-.3913l-1.0707.4292c-.3241.1293-.7276-.0155-.8948-.3224l-1.5207-2.7947c-.1672-.3068-.4396-.3068-.6069,0l-1.5172,2.793c-.1672.3086-.5707.4534-.8948.3241l-1.0724-.4292c-.3242-.1293-.5431.0465-.4862.3913l.9569,5.8342c.0569.3448-.0949.4224-.3379.1707l-2.4137-2.493c-.2431-.2517-.5775-.2034-.7413.1051l-.2966.5621c-.1638.3085-.5827.524-.9292.4775l-2.0413-.2706c-.3465-.0448-.5672.1965-.4914.5361l.6086,2.6895c.0776.3414-.112.7516-.4224.9138l-.3121.1637c-.3103.1621-.3379.4707-.0603.6845l4.8688,3.7791c.2776.2138.4328.6673.3466,1.0068l-.2569,1.0156c-.0862.3379.1259.5741.4724.5224l3.7119-.5586c.3465-.0518.6293.1931.6293.5413v2.9809c0,.35.2862.6362.6362.6362h.6914c.35,0,.6362-.2862.6362-.6362v-2.9809c0-.3482.2827-.5931.6293-.5413l3.7188.5586c.3465.0518.5586-.1845.4724-.5224l-.2603-1.0156h-.0003Z"/><path class="cls-2" d="m53.6154,81.3642c-1.7517-1.8844-12.2685-13.1736-12.6237-13.5546h-12.9667c1.7465,1.8775,12.2271,13.1684,12.5805,13.5546h13.0099Z"/><path class="cls-2" d="m18.5253,31.3815C22.7355,3.0379,51.2878,0,51.2878,0h6.467s-25.2973,3.0447-29.011,29.5954c-2.4326,17.389,10.6634,34.4934,10.6634,34.4934h-12.9909s-11.0324-11.5685-7.8911-32.7073"/><path class="cls-2" d="m93.5913.0007c1.7568,1.8844,12.2667,13.1719,12.6236,13.5547h12.9685C117.4369,11.6727,106.9529.3835,106.6012.0007h-13.0099Z"/><path class="cls-2" d="m128.6856,49.9803c-4.2171,28.3472-32.7677,31.3832-32.7677,31.3832h-6.4635s25.2973-3.0464,29.0092-29.5971c2.4275-17.389-10.6599-34.4866-10.6599-34.4866h12.9909s11.0324,11.5685,7.8911,32.7004"/><path class="cls-2" d="m35.6528,81.3642c-1.75-1.8844-12.2668-13.1736-12.6202-13.5546h-12.9685c1.7465,1.8775,12.2271,13.1684,12.5874,13.5546h13.0013Z"/><path class="cls-2" d="m.5616,31.3815C4.7752,3.0379,33.3293,0,33.3293,0h6.4635S14.4955,3.0447,10.7853,29.5954c-2.4344,17.389,10.6616,34.4934,10.6616,34.4934h-12.9891S-2.5762,52.5204.5616,31.3815"/><path class="cls-2" d="m75.6317.0007c1.7516,1.8844,12.2667,13.1719,12.6202,13.5547h12.9702C99.4739,11.6727,88.9915.3835,88.6364.0007h-13.0047Z"/><path class="cls-2" d="m110.726,49.9803c-4.2171,28.3472-32.7677,31.3832-32.7677,31.3832h-6.4635s25.2938-3.0464,29.0057-29.5971c2.4309-17.389-10.6599-34.4866-10.6599-34.4866h12.9891s11.0358,11.5685,7.8963,32.7004"/><path class="cls-1" d="m157.5585,52.8365h13.7098c2.3913,0,3.6964-.2258,4.4636-.7241.9482-.5828,1.4948-1.5741,1.4948-2.7464,0-1.4017-.7276-2.6171-1.9447-3.2016-.6327-.3638-1.8051-.5327-3.2447-.5327h-5.548c-3.605,0-5.9532-.6396-7.5308-1.9948-1.8034-1.5792-2.8413-4.0153-2.8413-6.5859,0-3.8757,2.0724-7.2187,5.2326-8.2997,1.3482-.4914,2.9292-.6258,6.4463-.6258h14.8821v5.3653h-13.4357c-2.8447.0431-3.0688.0431-4.0171.2724-1.262.3172-2.0292,1.4844-2.0292,3.0688,0,1.3482.6327,2.4361,1.7137,2.9223.9051.4086,1.6224.4983,3.7861.4983h4.8274c4.4188,0,6.8101.681,8.5721,2.4861,1.3517,1.3534,2.2516,4.0102,2.2516,6.5791,0,3.2516-1.4861,6.2291-3.8343,7.6687-1.4827.9482-3.3792,1.2172-7.8463,1.2172h-15.108v-5.3672Z"/><path class="cls-1" d="m196.1157,45.8494h8.5738l-4.2895-10.5117-4.2843,10.5117Zm.5896-17.7235h7.3497l12.4444,30.0781h-7.4877l-2.8843-6.9911h-11.4513l-2.8861,6.9911h-7.5324l12.4478-30.0781h-.0001Z"/><polygon class="cls-1" points="224.7196 58.2039 218.6198 58.2039 218.6198 28.1258 226.785 28.1258 238.7914 50.5387 238.7914 28.1258 244.8705 28.1258 244.8705 58.2039 237.0243 58.2039 224.7196 36.1531 224.7196 58.2039"/><rect class="cls-1" x="252.1332" y="28.1261" width="6.4083" height="30.0781"/><polygon class="cls-1" points="294.9842 51.6214 302.8752 28.1258 312.2163 28.1258 312.2163 58.2039 306.1235 58.2039 306.1235 35.6048 298.2289 58.2039 291.655 58.2039 284.2002 35.6048 284.2002 58.2039 278.1193 58.2039 278.1193 28.1258 287.5 28.1258 294.9842 51.6214"/><path class="cls-1" d="m326.197,45.8494h8.5651l-4.2773-10.5117-4.2878,10.5117h0Zm.5879-17.7235h7.3531l12.4427,30.0781h-7.4842l-2.8879-6.9911h-11.4598l-2.8843,6.9911h-7.529l12.4495-30.0781h0Z"/><path class="cls-1" d="m364.0838,41.4322c3.2947,0,4.6016-1.2206,4.6016-4.1515,0-1.8103-.8154-3.0671-2.2137-3.5654-.4965-.1345-1.305-.2241-2.3879-.2241h-8.9789v7.941h8.9789Zm-8.9789,16.7717h-6.3963v-30.0781h14.7011c4.5567,0,7.2119.4914,9.017,1.7551,2.1206,1.4465,3.3429,3.8826,3.3429,6.6291,0,4.5998-1.8534,7.4428-5.7359,8.7979,3.5222.9482,5.236,3.6515,5.467,8.3359.219,2.8068.3052,3.4326.7121,4.5601h-7.1636c-.2328-.6793-.2672-.9431-.3638-1.6258-.0983-.8086-.2241-2.0723-.2741-2.6602-.5828-5.4566-2.4775-7.1221-8.1618-7.1221h-5.1445v11.4081h0Z"/><path class="cls-1" d="m403.555,58.2039h-10.4634c-5.1825,0-7.6687-.7189-10.0152-2.9809-2.5671-2.4724-3.9653-6.6222-3.9653-11.9927,0-6.7687,2.3862-11.7702,6.6325-13.7563,1.7154-.8086,4.6861-1.3482,7.6205-1.3482h10.191v5.3653h-9.4307c-2.9723,0-5.0929.8086-6.3997,2.4361-.9948,1.2155-1.5362,3.6085-1.5362,6.7204,0,4.417.9552,7.5273,2.7586,8.8324,1.1672.9051,2.9723,1.3569,5.4083,1.3569h9.1997v5.367h-.0002Z"/><polygon class="cls-1" points="430.3604 57.8495 429.6345 57.8495 429.6345 55.1599 428.6604 55.1599 428.6604 54.4772 431.381 54.4772 431.381 55.1599 430.3604 55.1599 430.3604 57.8495"/><polygon class="cls-1" points="433.1738 57.8931 432.8427 57.8931 432.822 57.8328 432.291 56.376 431.9945 57.8518 431.2634 57.8518 431.2842 57.7414 431.941 54.476 432.3823 54.476 433.0048 56.4156 433.6151 54.476 434.0564 54.476 434.0685 54.5485 434.7426 57.8518 434.0099 57.8518 433.7254 56.3794 433.1738 57.8931"/><path class="cls-1" d="m423.51,52.8094c-.0862-.3396.0689-.793.3448-1.0068l4.8757-3.7791c.2759-.2138.2483-.5225-.0603-.6828l-.3138-.1637c-.3103-.1621-.5017-.5741-.4241-.9155l.6052-2.6895c.0776-.3414-.1431-.5828-.4896-.5361l-2.0379.2706c-.3465.0448-.7655-.1707-.9293-.4793l-.2965-.5603c-.1638-.3085-.4983-.3568-.7413-.1051l-2.4154,2.493c-.2431.2517-.3966.1742-.3396-.1707l.9586-5.8342c.0569-.3448-.1621-.5207-.4879-.3913l-1.0707.4292c-.3241.1293-.7276-.0155-.8948-.3224l-1.5207-2.7947c-.1672-.3068-.4396-.3068-.6069,0l-1.5172,2.793c-.1672.3086-.5707.4534-.8948.3241l-1.0724-.4292c-.3242-.1293-.5431.0465-.4862.3913l.9569,5.8342c.0569.3448-.0949.4224-.3379.1707l-2.4137-2.493c-.2431-.2517-.5775-.2034-.7413.1051l-.2966.5621c-.1638.3085-.5827.524-.9292.4775l-2.0413-.2706c-.3465-.0448-.5672.1965-.4914.5361l.6086,2.6895c.0776.3414-.112.7516-.4224.9138l-.3121.1637c-.3103.1621-.3379.4707-.0603.6845l4.8688,3.7791c.2776.2138.4328.6673.3466,1.0068l-.2569,1.0156c-.0862.3379.1259.5741.4724.5224l3.7119-.5586c.3465-.0518.6293.1931.6293.5413v2.9809c0,.35.2862.6362.6362.6362h.6914c.35,0,.6362-.2862.6362-.6362v-2.9809c0-.3482.2827-.5931.6293-.5413l3.7188.5586c.3465.0518.5586-.1845.4724-.5224l-.2603-1.0156h-.0003Z"/></svg>